<svg id="_0294_online_payment_1" xmlns="http://www.w3.org/2000/svg" xmlns:xlink="http://www.w3.org/1999/xlink" viewBox="0 0 500 500" data-imageid="online-payment-1-90" imageName="Online Payment 1" class="illustrations_image" style="width: 188px;"><defs><style>.cls-1_online-payment-1-90{fill:url(#linear-gradient);}.cls-1_online-payment-1-90,.cls-2_online-payment-1-90,.cls-3_online-payment-1-90,.cls-4_online-payment-1-90,.cls-5_online-payment-1-90,.cls-6_online-payment-1-90,.cls-7_online-payment-1-90,.cls-8_online-payment-1-90,.cls-9_online-payment-1-90,.cls-10_online-payment-1-90,.cls-11_online-payment-1-90,.cls-12_online-payment-1-90,.cls-13_online-payment-1-90,.cls-14_online-payment-1-90,.cls-15_online-payment-1-90,.cls-16_online-payment-1-90,.cls-17_online-payment-1-90,.cls-18_online-payment-1-90,.cls-19_online-payment-1-90,.cls-20_online-payment-1-90,.cls-21_online-payment-1-90,.cls-22_online-payment-1-90,.cls-23_online-payment-1-90,.cls-24_online-payment-1-90,.cls-25_online-payment-1-90,.cls-26_online-payment-1-90,.cls-27_online-payment-1-90,.cls-28_online-payment-1-90,.cls-29_online-payment-1-90{stroke-width:0px;}.cls-2_online-payment-1-90{fill:url(#linear-gradient-25-online-payment-1-90);}.cls-3_online-payment-1-90{fill:url(#linear-gradient-11-online-payment-1-90);}.cls-4_online-payment-1-90{fill:url(#linear-gradient-12-online-payment-1-90);}.cls-5_online-payment-1-90{fill:url(#linear-gradient-13-online-payment-1-90);}.cls-6_online-payment-1-90{fill:url(#linear-gradient-10-online-payment-1-90);}.cls-7_online-payment-1-90{fill:url(#linear-gradient-17-online-payment-1-90);}.cls-8_online-payment-1-90{fill:url(#linear-gradient-16-online-payment-1-90);}.cls-9_online-payment-1-90{fill:url(#linear-gradient-19-online-payment-1-90);}.cls-10_online-payment-1-90{fill:url(#linear-gradient-15-online-payment-1-90);}.cls-11_online-payment-1-90{fill:url(#linear-gradient-23-online-payment-1-90);}.cls-12_online-payment-1-90{fill:url(#linear-gradient-21-online-payment-1-90);}.cls-13_online-payment-1-90{fill:url(#linear-gradient-18-online-payment-1-90);}.cls-14_online-payment-1-90{fill:url(#linear-gradient-14-online-payment-1-90);}.cls-15_online-payment-1-90{fill:url(#linear-gradient-22-online-payment-1-90);}.cls-16_online-payment-1-90{fill:url(#linear-gradient-20-online-payment-1-90);}.cls-17_online-payment-1-90{fill:url(#linear-gradient-24-online-payment-1-90);}.cls-18_online-payment-1-90{fill:url(#linear-gradient-4-online-payment-1-90);}.cls-19_online-payment-1-90{fill:url(#linear-gradient-2-online-payment-1-90);}.cls-20_online-payment-1-90{fill:url(#linear-gradient-3-online-payment-1-90);}.cls-21_online-payment-1-90{fill:url(#linear-gradient-8-online-payment-1-90);}.cls-22_online-payment-1-90{fill:url(#linear-gradient-9-online-payment-1-90);}.cls-23_online-payment-1-90{fill:url(#linear-gradient-7-online-payment-1-90);}.cls-24_online-payment-1-90{fill:url(#linear-gradient-5-online-payment-1-90);}.cls-25_online-payment-1-90{fill:url(#linear-gradient-6-online-payment-1-90);}.cls-26_online-payment-1-90{isolation:isolate;opacity:.24;}.cls-26_online-payment-1-90,.cls-29_online-payment-1-90{fill:#68e1fd;}.cls-27_online-payment-1-90{fill:#db9577;}.cls-28_online-payment-1-90{fill:#ffb4a3;}</style><linearGradient id="linear-gradient-online-payment-1-90" x1="-546.8" y1="2539.86" x2="-528.53" y2="2201.02" gradientTransform="translate(827.6 2858.21) scale(1 -1)" gradientUnits="userSpaceOnUse"><stop offset="0" stop-color="#231f20" stop-opacity="0"/><stop offset="1" stop-color="#231f20"/></linearGradient><linearGradient id="linear-gradient-2-online-payment-1-90" x1="-476.5" y1="2870.23" x2="-549.56" y2="2503.08" gradientTransform="translate(827.6 2858.21) scale(1 -1)" gradientUnits="userSpaceOnUse"><stop offset="0" stop-color="#fff" stop-opacity="0"/><stop offset=".66" stop-color="#fff"/></linearGradient><linearGradient id="linear-gradient-3-online-payment-1-90" x1="-581.84" y1="2722.85" x2="-591.73" y2="2689.66" gradientTransform="translate(849 2865.64) scale(1 -1)" xlink:href="#linear-gradient-online-payment-1-90"/><linearGradient id="linear-gradient-4-online-payment-1-90" x1="-572.96" y1="2716.56" x2="-557.43" y2="2689.46" gradientTransform="translate(849 2865.64) scale(1 -1)" xlink:href="#linear-gradient-online-payment-1-90"/><linearGradient id="linear-gradient-5-online-payment-1-90" x1="-562.66" y1="2720.06" x2="-530.69" y2="2657.04" gradientTransform="translate(849 2865.64) scale(1 -1)" xlink:href="#linear-gradient-online-payment-1-90"/><linearGradient id="linear-gradient-6-online-payment-1-90" x1="-599.62" y1="2726.94" x2="-623.06" y2="2684.01" gradientTransform="translate(849 2865.64) scale(1 -1)" xlink:href="#linear-gradient-online-payment-1-90"/><linearGradient id="linear-gradient-7-online-payment-1-90" x1="-514.05" y1="2595.62" x2="-611.02" y2="2290.58" xlink:href="#linear-gradient-online-payment-1-90"/><linearGradient id="linear-gradient-8-online-payment-1-90" x1="-1122.29" y1="2433.3" x2="-1110.78" y2="2367.74" gradientTransform="translate(660.71 2769.42) rotate(7.97) scale(1.01 -.95) skewX(9.53)" xlink:href="#linear-gradient-online-payment-1-90"/><linearGradient id="linear-gradient-9-online-payment-1-90" x1="-661.4" y1="2644.7" x2="-674.46" y2="2579.12" gradientTransform="translate(-2224.93 814.85) rotate(90) scale(1 -1)" xlink:href="#linear-gradient-2-online-payment-1-90"/><linearGradient id="linear-gradient-10-online-payment-1-90" x1="-661" y1="2620.4" x2="-674.05" y2="2554.81" gradientTransform="translate(-2202.91 838.66) rotate(90) scale(1 -1)" xlink:href="#linear-gradient-2-online-payment-1-90"/><linearGradient id="linear-gradient-11-online-payment-1-90" x1="-660.58" y1="2596.09" x2="-673.63" y2="2530.51" gradientTransform="translate(-2180.89 862.44) rotate(90) scale(1 -1)" xlink:href="#linear-gradient-2-online-payment-1-90"/><linearGradient id="linear-gradient-12-online-payment-1-90" x1="-482.81" y1="2541.66" x2="-446.28" y2="2333.43" xlink:href="#linear-gradient-online-payment-1-90"/><linearGradient id="linear-gradient-13-online-payment-1-90" x1="-641.42" y1="2447.91" x2="-498.49" y2="2630.57" xlink:href="#linear-gradient-online-payment-1-90"/><linearGradient id="linear-gradient-14-online-payment-1-90" x1="361.76" y1="304.41" x2="381.08" y2="276.49" gradientTransform="matrix(1,0,0,1,0,0)" xlink:href="#linear-gradient-online-payment-1-90"/><linearGradient id="linear-gradient-15-online-payment-1-90" x1="330.1" y1="288.28" x2="399.66" y2="161.09" gradientTransform="matrix(1,0,0,1,0,0)" xlink:href="#linear-gradient-online-payment-1-90"/><linearGradient id="linear-gradient-16-online-payment-1-90" x1="-1297.16" y1="2051.65" x2="-1303.04" y2="2022.14" gradientTransform="translate(608.35 2652.15) rotate(25.66) scale(1 -1)" xlink:href="#linear-gradient-2-online-payment-1-90"/><linearGradient id="linear-gradient-17-online-payment-1-90" x1="-1079.07" y1="1886.36" x2="-479.95" y2="1545.4" gradientTransform="translate(-1815.15 1471.72) rotate(90) scale(1.27 -1.18)" xlink:href="#linear-gradient-2-online-payment-1-90"/><linearGradient id="linear-gradient-18-online-payment-1-90" x1="-1077.95" y1="1888.34" x2="-478.82" y2="1547.38" gradientTransform="translate(-1809.59 1468.37) rotate(90) scale(1.27 -1.18)" xlink:href="#linear-gradient-2-online-payment-1-90"/><linearGradient id="linear-gradient-19-online-payment-1-90" x1="-1076.82" y1="1890.32" x2="-477.7" y2="1549.35" gradientTransform="translate(-1804.04 1465.03) rotate(90) scale(1.27 -1.18)" xlink:href="#linear-gradient-2-online-payment-1-90"/><linearGradient id="linear-gradient-20-online-payment-1-90" x1="-1075.69" y1="1892.3" x2="-476.57" y2="1551.32" gradientTransform="translate(-1798.47 1461.69) rotate(90) scale(1.27 -1.18)" xlink:href="#linear-gradient-2-online-payment-1-90"/><linearGradient id="linear-gradient-21-online-payment-1-90" x1="-1074.58" y1="1894.27" x2="-475.45" y2="1553.3" gradientTransform="translate(-1792.91 1458.35) rotate(90) scale(1.27 -1.18)" xlink:href="#linear-gradient-2-online-payment-1-90"/><linearGradient id="linear-gradient-22-online-payment-1-90" x1="-1073.45" y1="1896.24" x2="-474.32" y2="1555.28" gradientTransform="translate(-1787.35 1455.01) rotate(90) scale(1.27 -1.18)" xlink:href="#linear-gradient-2-online-payment-1-90"/><linearGradient id="linear-gradient-23-online-payment-1-90" x1="-1072.32" y1="1898.22" x2="-473.2" y2="1557.25" gradientTransform="translate(-1781.79 1451.67) rotate(90) scale(1.27 -1.18)" xlink:href="#linear-gradient-2-online-payment-1-90"/><linearGradient id="linear-gradient-24-online-payment-1-90" x1="-1071.19" y1="1900.2" x2="-472.07" y2="1559.24" gradientTransform="translate(-1776.23 1448.31) rotate(90) scale(1.27 -1.18)" xlink:href="#linear-gradient-2-online-payment-1-90"/><linearGradient id="linear-gradient-25-online-payment-1-90" x1="-1070.07" y1="1902.18" x2="-470.94" y2="1561.21" gradientTransform="translate(-1770.67 1444.98) rotate(90) scale(1.27 -1.18)" xlink:href="#linear-gradient-2-online-payment-1-90"/></defs><g id="background_online-payment-1-90"><path class="cls-26_online-payment-1-90 targetColor" d="M187.8,444.02c42.93-7.23,86.5,3.81,129.62,9.79,43.12,5.98,90.65,5.77,125.66-20.07,41.2-30.43,52.75-87.21,51.67-138.42-1.21-59.28-16.72-121.23-58.2-163.62-22.12-22.6-50.19-38.28-77.96-53.4-34.71-18.93-71.21-37.95-110.72-39.25-34.54-.95-68.06,11.71-93.34,35.27-19.68,18.51-33.05,42.63-49.46,64.1-30.32,39.66-72.11,71.95-90.55,118.33-16.79,42.21-10.64,92.77,15.82,129.69,26.46,36.92,72.3,59.06,117.66,56.78" style="fill: rgb(184, 210, 111);"/></g><g id="laptop_online-payment-1-90"><path class="cls-29_online-payment-1-90 targetColor" d="M147.99,404.93l245.5,33.27c9.1,1.23,17.54-4.96,19.09-14.01l18.91-109.89c1.59-9.29-4.64-18.11-13.93-19.71-.15-.03-.3-.05-.45-.07l-223.03-32.08c-7.9-1.14-15.53,3.35-18.37,10.81l-41.34,108.72c-3.35,8.8,1.06,18.66,9.87,22.01,1.21.46,2.47.78,3.76.96Z" style="fill: rgb(184, 210, 111);"/><path class="cls-1_online-payment-1-90" d="M147.99,404.93l245.5,33.27c9.1,1.23,17.54-4.96,19.09-14.01l18.91-109.89c1.59-9.29-4.64-18.11-13.93-19.71-.15-.03-.3-.05-.45-.07l-223.03-32.08c-7.9-1.14-15.53,3.35-18.37,10.81l-41.34,108.72c-3.35,8.8,1.06,18.66,9.87,22.01,1.21.46,2.47.78,3.76.96Z"/><path class="cls-29_online-payment-1-90 targetColor" d="M193.73,254.21l228.27,32.76c7.55,1.09,14.61-3.97,16-11.48l28.93-158.6c1.41-7.72-3.72-15.12-11.44-16.53-.28-.05-.56-.09-.85-.13l-251-30.19c-7.79-.94-14.87,4.62-15.81,12.42-.05.38-.08.75-.09,1.13l-6.17,156.01c-.27,7.26,4.98,13.56,12.17,14.6Z" style="fill: rgb(184, 210, 111);"/><path class="cls-29_online-payment-1-90 targetColor" d="M201.12,253.75l212.73,30.54c7.05,1.02,13.64-3.73,14.92-10.73l26.96-147.8c1.32-7.19-3.44-14.1-10.64-15.41-.27-.05-.54-.09-.81-.12l-233.93-28.13c-7.27-.86-13.86,4.33-14.72,11.59-.04.34-.07.69-.08,1.04l-5.77,145.37c-.28,6.79,4.62,12.7,11.35,13.67Z" style="fill: rgb(184, 210, 111);"/><path class="cls-19_online-payment-1-90" d="M201.12,253.75l212.73,30.54c7.05,1.02,13.64-3.73,14.92-10.73l26.96-147.8c1.32-7.19-3.44-14.1-10.64-15.41-.27-.05-.54-.09-.81-.12l-233.93-28.13c-7.27-.86-13.86,4.33-14.72,11.59-.04.34-.07.69-.08,1.04l-5.77,145.37c-.28,6.79,4.62,12.7,11.35,13.67Z"/><polygon class="cls-29_online-payment-1-90 targetColor" points="255.02 147.47 264.83 138.57 281.04 141.3 276.93 159.57 248.62 155.46 255.02 147.47" style="fill: rgb(184, 210, 111);"/><polygon class="cls-20_online-payment-1-90" points="255.02 147.47 264.83 138.57 281.04 141.3 276.93 159.57 248.62 155.46 255.02 147.47"/><polygon class="cls-29_online-payment-1-90 targetColor" points="274.04 148.3 290.71 148.99 292.3 161.55 266.5 158.12 274.04 148.3" style="fill: rgb(184, 210, 111);"/><polygon class="cls-18_online-payment-1-90" points="274.04 148.3 290.71 148.99 292.3 161.55 266.5 158.12 274.04 148.3"/><polygon class="cls-29_online-payment-1-90 targetColor" points="286.06 142.45 276.93 159.57 302.28 162.08 301.82 143.58 286.06 142.45" style="fill: rgb(184, 210, 111);"/><polygon class="cls-24_online-payment-1-90" points="286.06 142.45 276.93 159.57 302.28 162.08 301.82 143.58 286.06 142.45"/><polygon class="cls-29_online-payment-1-90 targetColor" points="230.05 153.78 229.13 135.22 258.66 135.51 260.8 158.35 230.05 153.78" style="fill: rgb(184, 210, 111);"/><polygon class="cls-25_online-payment-1-90" points="230.05 153.78 229.13 135.22 258.66 135.51 260.8 158.35 230.05 153.78"/><path class="cls-29_online-payment-1-90 targetColor" d="M149.36,394.43l245.52,33.32c9.1,1.23,17.54-4.96,19.09-14.01l18.91-109.89c1.62-9.27-4.58-18.11-13.86-19.73-.18-.03-.37-.06-.55-.09l-223.03-32.09c-7.9-1.14-15.53,3.35-18.37,10.81l-41.37,108.72c-3.35,8.8,1.07,18.66,9.87,22.01,1.22.46,2.49.79,3.78.96Z" style="fill: rgb(184, 210, 111);"/><path class="cls-23_online-payment-1-90" d="M381.96,381.2l-200.99-26.02c-12.08-1.77-19.43-13.09-16.37-25.27l18.68-45.75c3.04-12.19,15.29-20.64,27.37-18.86l188.56,27.65c12.08,1.77,19.43,13.09,16.37,25.27l-6.25,44.12c-3.04,12.18-15.3,20.64-27.37,18.86Z"/><path class="cls-21_online-payment-1-90" d="M281.51,407.6l-40.43-5.65c-4.63-.65-7.26-4.63-5.89-8.9l5.17-15.95c1.38-4.28,6.26-7.21,10.89-6.56l40.43,5.65c4.63.65,7.26,4.63,5.88,8.9l-5.16,15.95c-1.36,4.28-6.27,7.21-10.89,6.56Z"/><polygon class="cls-29_online-payment-1-90 targetColor" points="308.27 227.77 210.24 215.57 224.87 153.49 239.54 155.05 242.85 155.4 285.3 159.94 288.62 160.3 304.64 162.02 308.27 227.77" style="fill: rgb(184, 210, 111);"/><path class="cls-29_online-payment-1-90 targetColor" d="M285.12,117.68c-5.75-7.47-14.57-10.77-24.85-9.35-5.68.69-10.8,3.74-14.11,8.4-8.27,11.19-7.4,30.17-6.62,38.31l3.3.35c-.78-7.33-1.85-26.25,5.9-36.75,2.84-3.92,7.17-6.5,11.97-7.11,9.18-1.3,16.73,1.53,21.83,8.11,7.2,9.35,8.17,24.85,2.78,40.29l3.3.35c5.5-16.21,4.23-32.57-3.52-42.62Z" style="fill: rgb(184, 210, 111);"/><polygon class="cls-29_online-payment-1-90 targetColor" points="308.27 227.77 210.24 215.57 224.87 153.49 239.54 155.05 242.85 155.4 285.3 159.94 288.62 160.3 304.64 162.02 308.27 227.77" style="fill: rgb(184, 210, 111);"/><path class="cls-29_online-payment-1-90 targetColor" d="M285.12,117.68c-5.75-7.47-14.57-10.77-24.85-9.35-5.68.69-10.8,3.74-14.11,8.4-8.27,11.19-7.4,30.17-6.62,38.31l3.3.35c-.78-7.33-1.85-26.25,5.9-36.75,2.84-3.92,7.17-6.5,11.97-7.11,9.18-1.3,16.73,1.53,21.83,8.11,7.2,9.35,8.17,24.85,2.78,40.29l3.3.35c5.5-16.21,4.23-32.57-3.52-42.62Z" style="fill: rgb(184, 210, 111);"/><rect class="cls-22_online-payment-1-90" x="376.64" y="97.3" width="17.66" height="98.64" rx="8.35" ry="8.35" transform="translate(197.05 513.47) rotate(-83.64)"/><rect class="cls-6_online-payment-1-90" x="374.35" y="121.51" width="17.66" height="98.64" rx="8.35" ry="8.35" transform="translate(170.95 532.73) rotate(-83.64)"/><rect class="cls-3_online-payment-1-90" x="372.07" y="145.71" width="17.66" height="98.64" rx="8.35" ry="8.35" transform="translate(144.88 551.98) rotate(-83.64)"/></g><g id="hand_online-payment-1-90"><path class="cls-27_online-payment-1-90" d="M399.19,324.45c-.35,7.13-.86,14.7-5.15,20.36-5.33,7.04-15.75,9.11-23.96,5.86-8.22-3.25-14.13-11.01-16.55-19.5-1.29-4.54-1.68-9.3-1.42-14,.19-3.45,1.25-4.01,4.19-5.61,3.19-1.74,6.51-3.21,9.72-4.92,4.41-2.34,8.69-5.2,11.57-9.27.95-1.35,1.76-2.83,3-3.91,6.13-5.35,15.93,3.42,18.72,8.78,2.78,5.28.18,16.09-.12,22.21Z"/><path class="cls-4_online-payment-1-90" d="M331.11,396.64c3.56-9.08,7.2-18.72,5.55-28.34-1.21-7.05-5.21-13.54-5.55-20.69-.19-4.16.93-8.39,0-12.45-1.85-8.15-10.86-12.44-15.24-19.57-1.34-2.17-2.12-5.27-.32-7.08,1.3-1.32,3.38-1.37,5.22-1.29,16.49.75,32.71,4.45,47.89,10.92,6.81,2.91,13.71,6.65,17.58,12.96,3.87,6.3,4.07,14.21,3.97,21.65-.35,23.83-2.55,47.6-6.57,71.09-.09,1.12-.49,2.2-1.16,3.11-1.45,1.62-4.03,1.25-6.15.74-13.69-3.28-22.37-3.7-36.09-6.93-4.15-1-14.69-1.14-18.27-3.04,1.63-6,6.74-15,9.14-21.08Z"/><path class="cls-5_online-payment-1-90" d="M226.64,394.54c-.98,3.65-2.05,7.45-4.63,10.18-5.24,5.45-14.08,4.36-21.5,2.86-1.78-.36-3.65-.76-5.02-1.95-1.16-1.15-2-2.59-2.42-4.17-5.55-16.23.36-34.17,8.54-49.24,2.91-5.35,6.15-10.61,10.6-14.76,6.65-6.23,15.47-9.51,24.06-12.65-16.33,15.16-25.81,36.29-26.29,58.57,0,1.77,14.19-7.68,15.05-7.74,7.91-.53,2.8,14.49,1.61,18.91Z"/><path class="cls-28_online-payment-1-90" d="M351.62,298.63c-3.94-4.74-9.35-8.03-15.37-9.34-1.63-.43-3.34-.47-4.99-.11-1.67.38-3.02,1.61-3.56,3.24-.24,1.36-.06,2.76.52,4.01,3.16,8.61,10.04,15.49,13.01,24.16,2.48,7.25,6.3,12.86,6.6,20.51.37,9.9-2.15,19.91-.31,29.61,1.28,6.78,4.63,13.13,5.21,20.01.39,4.57-.37,9.59,2.15,13.43,3.13,4.78,9.73,5.47,15.43,5.68,5.04.19,10.62.21,14.46-3.07,2.24-1.91,3.54-4.67,4.76-7.35l23.23-50.64c1.32-2.89,2.67-5.91,2.52-9.09-.23-4.43-3.3-8.11-5.19-12.12-6.2-13.14.61-28.69-1.16-43.12-1.5-12.22-9.08-22.83-17.46-31.85-2-2.16-4.72-4.45-7.54-3.63-3.6,1.05-3.97,6.25-2.2,9.55,1.77,3.3,4.86,5.85,6.11,9.38.93,2.73.69,5.72.43,8.61l-1.85,19.58c-.48,5.1-.93,10.18-1.8,15.27-1,6.06-3.42,13.05-9.35,14.67-4.63,1.28-9.59-1.55-12.51-5.39s-4.4-8.55-6.34-12.96c-1.94-4.41-1.71-5.35-4.78-9.05Z"/><path class="cls-29_online-payment-1-90 targetColor" d="M368.42,394.59c-4.16-.76-8.33-1.92-12.55-1.64-4.22.29-8.65,2.44-10.18,6.39-.64,1.62-.73,3.41-1.28,5.05-.81,2.44-2.54,4.45-3.7,6.73-1.94,3.7-2.42,7.93-2.86,12.08l-3.47,32.39c21.82,7.88,47.27,10.39,67.42-1.12,1.37-.66,2.54-1.67,3.38-2.94.85-1.55.72-3.42.56-5.17-1.35-15.57-1.2-32.18-4.12-47.51-1.68-8.83-4.93-5.27-12.63-3.98-7.16,1.22-13.56-.27-20.57-.27Z" style="fill: rgb(184, 210, 111);"/><path class="cls-28_online-payment-1-90" d="M230.72,375.14c.27-.69.34-1.43.21-2.16-.27-.75-.8-1.37-1.5-1.75-4.22-2.67-9.95-.62-13.7,2.67-3.75,3.29-6.48,7.72-10.36,10.82-2.28-7.57,1.13-15.56,4.46-22.73,6.07-13.07,12.96-26.99,25.56-33.92,1.54-.83,3.3-1.74,3.78-3.42.81-2.85-2.7-5.09-5.66-5.19-4.41-.16-8.59,1.92-12.96,2.3-3.7.31-7.4-.57-11.11-.53-3.29.16-6.55.69-9.73,1.58-7.51,1.8-15.26,3.7-21.43,8.33-4.22,3.17-7.47,7.46-10.47,11.81-4.54,6.58-8.72,13.54-10.93,21.22-4.04,14.03-1.38,29.81-7.93,42.86-2.32,4.63-5.85,9.45-4.45,14.43,1.1,3.94,5,6.4,8.75,8.03,7.82,3.38,16.33,4.84,24.83,4.27,1.54-.05,3.05-.37,4.49-.93,1.44-.72,2.76-1.66,3.91-2.78,18.3-15.94,37.97-29.95,44.22-54.91Z"/><path class="cls-29_online-payment-1-90 targetColor" d="M119.23,439.68c10.41,4.09,20.91,8.21,31.89,10.32,10.98,2.11,22.63,2.11,33.07-1.9,2.16-.82,4.51-2.12,4.99-4.38.34-1.6-.37-3.22-1.07-4.71l-3.33-7.05c-.59-1.88-2.33-3.16-4.29-3.16-6.78-1.18-13.75-1.92-20.1-4.63-10.59-4.46-11.26-16.27-22.91-9.13-2.55,1.6-20.61,23.7-18.24,24.63Z" style="fill: rgb(184, 210, 111);"/></g><g id="card_online-payment-1-90"><path class="cls-14_online-payment-1-90" d="M380.27,288.18l-6.69,13.69c-1.82,3.71-6.3,5.25-10.01,3.43l-8.34-4.08c1.53-4.44,3.82-8.61,7.6-11.28,4.96-3.54,11.6-3.67,17.44-1.76Z"/><rect class="cls-29_online-payment-1-90 targetColor" x="313.2" y="220.31" width="56.62" height="87.87" rx="7.63" ry="7.63" transform="translate(-46.43 453.87) rotate(-63.78)" style="fill: rgb(184, 210, 111);"/><path class="cls-10_online-payment-1-90" d="M390.94,266.35l-10.67,21.83-6.69,13.69c-1.82,3.71-6.3,5.25-10.01,3.43l-8.34-4.08-56.91-27.82c-3.72-1.82-5.25-6.3-3.44-10.01l17.36-35.51c1.82-3.71,6.3-5.25,10.01-3.44l65.26,31.91c3.71,1.81,5.25,6.29,3.43,10Z"/><path class="cls-8_online-payment-1-90" d="M316.4,244.57l5,2.4c4.74,2.28,6.73,7.96,4.46,12.69l-.27.56c-.94,1.95-3.27,2.77-5.22,1.83h0l-10.05-4.83c-1.95-.94-2.77-3.27-1.83-5.22h0l2.69-5.61c.94-1.95,3.27-2.77,5.22-1.83h0Z"/><rect class="cls-7_online-payment-1-90" x="317.15" y="270.18" width="6.45" height="4.05" transform="translate(-63.42 443.79) rotate(-64.44)"/><rect class="cls-13_online-payment-1-90" x="322.58" y="272.92" width="6.45" height="4.05" transform="translate(-62.8 450.25) rotate(-64.44)"/><rect class="cls-9_online-payment-1-90" x="328.02" y="275.67" width="6.45" height="4.05" transform="translate(-62.19 456.7) rotate(-64.44)"/><rect class="cls-16_online-payment-1-90" x="333.46" y="278.4" width="6.45" height="4.05" transform="translate(-61.56 463.17) rotate(-64.44)"/><rect class="cls-12_online-payment-1-90" x="338.88" y="281.15" width="6.45" height="4.05" transform="translate(-60.96 469.62) rotate(-64.44)"/><rect class="cls-15_online-payment-1-90" x="344.31" y="283.89" width="6.45" height="4.05" transform="translate(-60.34 476.08) rotate(-64.44)"/><rect class="cls-11_online-payment-1-90" x="349.74" y="286.63" width="6.45" height="4.05" transform="translate(-59.73 482.54) rotate(-64.44)"/><rect class="cls-17_online-payment-1-90" x="355.18" y="289.37" width="6.45" height="4.05" transform="translate(-59.1 489) rotate(-64.44)"/><rect class="cls-2_online-payment-1-90" x="360.61" y="292.11" width="6.45" height="4.05" transform="translate(-58.49 495.46) rotate(-64.44)"/></g></svg>