<svg id="_0271_order_confirmed_1" data-name="0271_order_confirmed_1" xmlns="http://www.w3.org/2000/svg" xmlns:xlink="http://www.w3.org/1999/xlink" viewBox="0 0 500 500" data-imageid="order-confirmed-1-24" imageName="Order Confirmed 1" class="illustrations_image" style="width: 188px;">
  <defs>
    <style>
      .cls-1_order-confirmed-1-24 {
        fill: url(#linear-gradient);
      }

      .cls-1_order-confirmed-1-24, .cls-2_order-confirmed-1-24, .cls-3_order-confirmed-1-24, .cls-4_order-confirmed-1-24, .cls-5_order-confirmed-1-24, .cls-6_order-confirmed-1-24, .cls-7_order-confirmed-1-24, .cls-8_order-confirmed-1-24, .cls-9_order-confirmed-1-24, .cls-10_order-confirmed-1-24, .cls-11_order-confirmed-1-24, .cls-12_order-confirmed-1-24, .cls-13_order-confirmed-1-24, .cls-14_order-confirmed-1-24 {
        stroke-width: 0px;
      }

      .cls-2_order-confirmed-1-24 {
        fill: url(#linear-gradient-6-order-confirmed-1-24);
      }

      .cls-3_order-confirmed-1-24 {
        fill: url(#linear-gradient-11-order-confirmed-1-24);
      }

      .cls-4_order-confirmed-1-24 {
        fill: url(#linear-gradient-5-order-confirmed-1-24);
      }

      .cls-5_order-confirmed-1-24 {
        isolation: isolate;
        opacity: .24;
      }

      .cls-5_order-confirmed-1-24, .cls-14_order-confirmed-1-24 {
        fill: #68e1fd;
      }

      .cls-6_order-confirmed-1-24 {
        fill: #fff;
      }

      .cls-7_order-confirmed-1-24 {
        fill: url(#linear-gradient-2-order-confirmed-1-24);
      }

      .cls-8_order-confirmed-1-24 {
        fill: url(#linear-gradient-7-order-confirmed-1-24);
      }

      .cls-9_order-confirmed-1-24 {
        fill: url(#linear-gradient-3-order-confirmed-1-24);
      }

      .cls-10_order-confirmed-1-24 {
        fill: url(#linear-gradient-9-order-confirmed-1-24);
      }

      .cls-11_order-confirmed-1-24 {
        fill: url(#linear-gradient-8-order-confirmed-1-24);
      }

      .cls-12_order-confirmed-1-24 {
        fill: url(#linear-gradient-10-order-confirmed-1-24);
      }

      .cls-13_order-confirmed-1-24 {
        fill: url(#linear-gradient-4-order-confirmed-1-24);
      }
    </style>
    <linearGradient id="linear-gradient-order-confirmed-1-24" x1="309.25" y1="2875.2" x2="319.28" y2="2813.13" gradientTransform="translate(-33.35 3043.18) scale(1 -1)" gradientUnits="userSpaceOnUse">
      <stop offset="0" stop-color="#010101" stop-opacity="0"/>
      <stop offset=".95" stop-color="#010101"/>
    </linearGradient>
    <linearGradient id="linear-gradient-2-order-confirmed-1-24" x1="269.73" y1="2858.94" x2="286.18" y2="2804.19" xlink:href="#linear-gradient-order-confirmed-1-24"/>
    <linearGradient id="linear-gradient-3-order-confirmed-1-24" x1="308.82" y1="2846.95" x2="314.99" y2="2806.09" xlink:href="#linear-gradient-order-confirmed-1-24"/>
    <linearGradient id="linear-gradient-4-order-confirmed-1-24" x1="231.24" y1="2854.2" x2="235.61" y2="2778.89" xlink:href="#linear-gradient-order-confirmed-1-24"/>
    <linearGradient id="linear-gradient-5-order-confirmed-1-24" x1="289.81" y1="2619.69" x2="346.87" y2="2926.59" xlink:href="#linear-gradient-order-confirmed-1-24"/>
    <linearGradient id="linear-gradient-6-order-confirmed-1-24" x1="249.92" y1="2877.09" x2="169.34" y2="2749.48" gradientTransform="translate(-33.34 3043.19) scale(1 -1)" xlink:href="#linear-gradient-order-confirmed-1-24"/>
    <linearGradient id="linear-gradient-7-order-confirmed-1-24" x1="313.17" y1="2871.94" x2="369.07" y2="2753.19" gradientTransform="translate(-33.34 3043.18) scale(1 -1)" xlink:href="#linear-gradient-order-confirmed-1-24"/>
    <linearGradient id="linear-gradient-8-order-confirmed-1-24" x1="262.61" y1="2661.75" x2="281.12" y2="2886.91" gradientTransform="translate(-31 3046.71) scale(1 -1)" gradientUnits="userSpaceOnUse">
      <stop offset="0" stop-color="#010101" stop-opacity="0"/>
      <stop offset="1" stop-color="#010101"/>
    </linearGradient>
    <linearGradient id="linear-gradient-9-order-confirmed-1-24" x1="274.97" y1="2818.77" x2="274.97" y2="2694.37" gradientTransform="translate(-31 3046.71) scale(1 -1)" xlink:href="#linear-gradient-order-confirmed-1-24"/>
    <linearGradient id="linear-gradient-10-order-confirmed-1-24" x1="290.8" y1="2913.1" x2="296.2" y2="2861.44" gradientTransform="translate(-31 3046.71) scale(1 -1)" xlink:href="#linear-gradient-order-confirmed-1-24"/>
    <linearGradient id="linear-gradient-11-order-confirmed-1-24" x1="257.12" y1="2917.98" x2="262.52" y2="2866.33" gradientTransform="translate(-31 3046.71) scale(1 -1)" xlink:href="#linear-gradient-order-confirmed-1-24"/>
  </defs>
  <path id="background_order-confirmed-1-24" class="cls-5_order-confirmed-1-24 targetColor" d="m233.26,60.65c-24.99-1.93-50.45-3.83-74.92,1.59-24.47,5.42-48.23,19.36-59.05,41.54-14.03,28.73-3.65,63.65-13.47,94.01-5.4,16.69-16.53,30.89-26.49,45.46-16,23.35-29.7,49.03-34.34,76.81s.71,58.19,19.18,79.83c29.56,34.74,81.84,38.14,128.03,38.87l163.49,2.46c21.17.32,43.21.46,62.36-8.42,30.53-14.24,46.16-47.53,56.29-79.07,9.49-29.54,16.06-62.72,2.32-90.61-7.74-15.69-21.38-28.4-26.94-44.97-7.11-21.39.69-44.58,0-67.06-3.01-101.96-127.03-85.09-196.44-90.44Z" style="fill: rgb(184, 210, 111);"/>
  <g id="shopping_cart_order-confirmed-1-24" data-name="shopping cart">
    <path class="cls-14_order-confirmed-1-24 targetColor" d="m301.01,171.24c.04-.78-.14-1.56-.51-2.24-.36-.45-.81-.81-1.33-1.07-6.73-3.93-14.2-6.43-21.95-7.33-1.26-.24-2.56-.14-3.77.29-1.68.73-2.53,2.48-3.33,4.11l-14.9,31.15c-.4.84-.79,1.78-.4,2.6.24.42.58.77.98,1.04,12.24,9.05,27.52,12.98,42.61,10.94,2.12-.16,4.16-.84,5.95-1.98,6.73-4.92,1.36-11.21-1.86-15.81-3.73-5.31-1.27-15.3-1.5-21.69Z" style="fill: rgb(184, 210, 111);"/>
    <path class="cls-1_order-confirmed-1-24" d="m301.01,171.24c.04-.78-.14-1.56-.51-2.24-.36-.45-.81-.81-1.33-1.07-6.73-3.93-14.2-6.43-21.95-7.33-1.26-.24-2.56-.14-3.77.29-1.68.73-2.53,2.48-3.33,4.11l-14.9,31.15c-.4.84-.79,1.78-.4,2.6.24.42.58.77.98,1.04,12.24,9.05,27.52,12.98,42.61,10.94,2.12-.16,4.16-.84,5.95-1.98,6.73-4.92,1.36-11.21-1.86-15.81-3.73-5.31-1.27-15.3-1.5-21.69Z"/>
    <path class="cls-14_order-confirmed-1-24 targetColor" d="m226.34,176.31c.33-.75.84-1.4,1.47-1.92.82-.47,1.76-.7,2.7-.67,4.71-.14,9.41.01,14.1.46,3.06.12,6.09.55,9.07,1.26,2.16.59,4.22,1.49,6.13,2.67.91.47,1.66,1.19,2.16,2.08.34.9.46,1.86.35,2.81-.14,3.57-.33,7.14-.53,10.7-.4,7.16-.91,14.5-3.82,21.05-.31.82-.8,1.56-1.44,2.17-.6.44-1.28.76-2,.93-1.95.49-3.96.74-5.97.77-6.76.25-13.52-.32-20.14-1.68-3.1-.57-6.12-1.52-8.98-2.83-.48-.18-.89-.51-1.18-.93-.18-.41-.26-.86-.21-1.31.07-5.38.3-10.75.69-16.1.18-2.37.07-5.1.78-7.38.45-1.46,1.57-2.59,2.34-3.89,1.61-2.66,2.98-5.46,4.47-8.17Z" style="fill: rgb(184, 210, 111);"/>
    <path class="cls-7_order-confirmed-1-24" d="m226.34,176.31c.33-.75.84-1.4,1.47-1.92.82-.47,1.76-.7,2.7-.67,4.71-.14,9.41.01,14.1.46,3.06.12,6.09.55,9.07,1.26,2.16.59,4.22,1.49,6.13,2.67.91.47,1.66,1.19,2.16,2.08.34.9.46,1.86.35,2.81-.14,3.57-.33,7.14-.53,10.7-.4,7.16-.91,14.5-3.82,21.05-.31.82-.8,1.56-1.44,2.17-.6.44-1.28.76-2,.93-1.95.49-3.96.74-5.97.77-6.76.25-13.52-.32-20.14-1.68-3.1-.57-6.12-1.52-8.98-2.83-.48-.18-.89-.51-1.18-.93-.18-.41-.26-.86-.21-1.31.07-5.38.3-10.75.69-16.1.18-2.37.07-5.1.78-7.38.45-1.46,1.57-2.59,2.34-3.89,1.61-2.66,2.98-5.46,4.47-8.17Z"/>
    <path class="cls-14_order-confirmed-1-24 targetColor" d="m307.79,189.12c1.41-.13,2.94-.24,4.15.5,1.03.77,1.81,1.83,2.23,3.05,3.76,8.46,5.47,17.69,5,26.94-25.77,3.07-51.7,4.47-77.65,4.21-5.99-.07-4.21-11.35-1.68-14.78,3.54-4.71,12.04-6.57,17.21-8.42,16.39-5.88,33.43-9.74,50.75-11.49Z" style="fill: rgb(184, 210, 111);"/>
    <path class="cls-9_order-confirmed-1-24" d="m307.79,189.12c1.41-.13,2.94-.24,4.15.5,1.03.77,1.81,1.83,2.23,3.05,3.76,8.46,5.47,17.69,5,26.94-25.77,3.07-51.7,4.47-77.65,4.21-5.99-.07-4.21-11.35-1.68-14.78,3.54-4.71,12.04-6.57,17.21-8.42,16.39-5.88,33.43-9.74,50.75-11.49Z"/>
    <path class="cls-14_order-confirmed-1-24 targetColor" d="m161.79,192.56c-.23-1.38.7-2.68,2.08-2.9.27-.05.55-.05.83,0,21.98-1.72,44.01-2.69,66.07-2.91.7-.07,1.4.06,2.03.37.91.56,1.14,1.74,1.31,2.79,1.17,7.68,2.34,15.36,3.53,23.03.19.72.13,1.48-.17,2.16-.51.84-1.62,1.04-2.6,1.14-18.73,2-37.56,2.95-56.4,2.84-5.94-.04-13.6,1.42-16.58-4.92-2.7-5.8-.61-15.56-.09-21.59Z" style="fill: rgb(184, 210, 111);"/>
    <path class="cls-13_order-confirmed-1-24" d="m161.79,192.56c-.23-1.38.7-2.68,2.08-2.9.27-.05.55-.05.83,0,21.98-1.72,44.01-2.69,66.07-2.91.7-.07,1.4.06,2.03.37.91.56,1.14,1.74,1.31,2.79,1.17,7.68,2.34,15.36,3.53,23.03.19.72.13,1.48-.17,2.16-.51.84-1.62,1.04-2.6,1.14-18.73,2-37.56,2.95-56.4,2.84-5.94-.04-13.6,1.42-16.58-4.92-2.7-5.8-.61-15.56-.09-21.59Z"/>
    <path class="cls-4_order-confirmed-1-24" d="m183.07,383.54c32.62,1.4,65.27,2.01,97.93,1.83-2.47,3.54-.32,8.76,3.32,11.06s8.17,2.53,12.48,2.63l62.97,1.8c8.65.25,17.92.33,25.12-4.48,1.48-.88,2.68-2.17,3.45-3.7,2.09-4.79-2.76-9.58-7.05-12.59l-17.68-12.42c-8.3-5.82-16.69-11.68-26.1-15.41-13.13-5.18-27.54-5.89-41.65-6.32-32.45-.94-65.75-1.78-98.1,1.38-10.19.88-20.11,3.7-29.25,8.28-5.74,2.85-27.83,9.26-28.62,15.46-1.71,12.39,35.84,12.11,43.17,12.46Z"/>
    <path class="cls-14_order-confirmed-1-24 targetColor" d="m233.05,141.81h0c4.04,2.65,5.16,8.06,2.51,12.1l-51.31,78.24c-2.65,4.04-8.06,5.16-12.1,2.51h0c-4.04-2.65-5.16-8.06-2.51-12.1l51.31-78.24c2.65-4.04,8.06-5.16,12.1-2.51Z" style="fill: rgb(184, 210, 111);"/>
    <path class="cls-14_order-confirmed-1-24 targetColor" d="m256.48,147.06h0c3.88-2.87,9.35-2.04,12.22,1.84l55.59,75.26c2.87,3.88,2.04,9.35-1.84,12.22h0c-3.88,2.87-9.35,2.04-12.22-1.84l-55.59-75.26c-2.87-3.88-2.04-9.35,1.84-12.22Z" style="fill: rgb(184, 210, 111);"/>
    <path class="cls-2_order-confirmed-1-24" d="m233.05,141.81h0c4.04,2.65,5.16,8.06,2.51,12.1l-51.31,78.24c-2.65,4.04-8.06,5.16-12.1,2.51h0c-4.04-2.65-5.16-8.06-2.51-12.1l51.31-78.24c2.65-4.04,8.06-5.16,12.1-2.51Z"/>
    <path class="cls-8_order-confirmed-1-24" d="m256.48,147.06h0c3.88-2.87,9.35-2.04,12.22,1.84l55.59,75.26c2.87,3.88,2.04,9.35-1.84,12.22h0c-3.88,2.87-9.35,2.04-12.22-1.84l-55.59-75.26c-2.87-3.88-2.04-9.35,1.84-12.22Z"/>
    <polygon class="cls-14_order-confirmed-1-24 targetColor" points="310.28 367.25 170.46 367.25 153.75 239.26 333.42 239.26 310.28 367.25" style="fill: rgb(184, 210, 111);"/>
    <polygon class="cls-11_order-confirmed-1-24" points="333.42 239.24 310.27 367.25 170.47 367.25 153.76 239.24 333.42 239.24"/>
    <path class="cls-14_order-confirmed-1-24 targetColor" d="m224.44,282.95v84.29h-23.69v-84.29c.17-6.53,5.61-11.69,12.15-11.52,6.29.17,11.35,5.23,11.52,11.52h.03Z" style="fill: rgb(184, 210, 111);"/>
    <path class="cls-14_order-confirmed-1-24 targetColor" d="m275.84,282.95v84.29h-23.66v-84.29c.17-6.53,5.61-11.69,12.15-11.52,6.29.17,11.35,5.23,11.52,11.52Z" style="fill: rgb(184, 210, 111);"/>
    <rect class="cls-14_order-confirmed-1-24 targetColor" x="134.47" y="214.58" width="218.99" height="38.56" rx="15.18" ry="15.18" style="fill: rgb(184, 210, 111);"/>
    <rect class="cls-10_order-confirmed-1-24" x="134.47" y="214.58" width="218.99" height="38.56" rx="15.18" ry="15.18"/>
    <circle class="cls-12_order-confirmed-1-24" cx="261.96" cy="154.31" r="6.94"/>
    <circle class="cls-3_order-confirmed-1-24" cx="228.29" cy="149.43" r="6.94"/>
  </g>
  <g id="tick_one_order-confirmed-1-24" data-name="tick one">
    <circle class="cls-6_order-confirmed-1-24" cx="341.42" cy="330.86" r="68.78"/>
    <path class="cls-14_order-confirmed-1-24 targetColor" d="m330.72,371.4c-2.47,0-4.84-.98-6.58-2.73l-30.14-30.1c-3.53-3.74-3.36-9.63.37-13.16,3.59-3.39,9.2-3.39,12.79,0l23.09,23.09,47.14-54.06c3.28-3.96,9.15-4.5,13.11-1.22,3.96,3.28,4.5,9.15,1.22,13.11-.1.12-.19.23-.29.34l-53.71,61.57c-1.7,1.95-4.14,3.1-6.73,3.17-.09,0-.18,0-.27-.02Z" style="fill: rgb(184, 210, 111);"/>
  </g>
</svg>