<svg version="1.1" id="_0270_order_confirmation" xmlns="http://www.w3.org/2000/svg" xmlns:xlink="http://www.w3.org/1999/xlink" x="0px" y="0px" viewBox="0 0 500 500" style="width: 188px;" xml:space="preserve" data-imageid="order-confirmed-2-80" imageName="Order Confirmed 2" class="illustrations_image">
<style type="text/css">
	.st0_order-confirmed-2-80{fill:#093F68;}
	.st1_order-confirmed-2-80{fill:#68E1FD;}
	.st2_order-confirmed-2-80{fill:#FFFFFF;}
	.st3_order-confirmed-2-80{fill:#FFBC0E;}
	.st4_order-confirmed-2-80{fill:#DFEAEF;}
	.st5_order-confirmed-2-80{fill:#70CC40;}
	.st6_order-confirmed-2-80{fill:#FFC9B0;}
	.st7_order-confirmed-2-80{fill:#AD7972;}
	.st8_order-confirmed-2-80{fill:#725858;}
</style>
<g id="device_order-confirmed-2-80">
	<path class="st0_order-confirmed-2-80" d="M218.6,59.5H414c10.3,0,18.7,8.4,18.7,18.7v323.6c0,10.3-8.4,18.7-18.7,18.7H218.6c-10.3,0-18.7-8.4-18.7-18.7&#10;&#9;&#9;V78.2C199.9,67.9,208.3,59.5,218.6,59.5z"/>
	<path class="st0_order-confirmed-2-80" d="M414,422.5H218.6c-11.4,0-20.7-9.3-20.7-20.7V78.2c0-11.4,9.3-20.7,20.7-20.7H414c11.4,0,20.7,9.3,20.7,20.7&#10;&#9;&#9;v323.6C434.7,413.2,425.4,422.4,414,422.5z M218.6,61.5c-9.2,0-16.7,7.5-16.7,16.7v323.6c0,9.2,7.5,16.7,16.7,16.7H414&#10;&#9;&#9;c9.2,0,16.7-7.5,16.7-16.7V78.2c0-9.2-7.5-16.7-16.7-16.7H218.6z"/>
	<path class="st1_order-confirmed-2-80 targetColor" d="M204.2,59.5h195.4c10.3,0,18.7,8.4,18.7,18.7v323.6c0,10.3-8.4,18.7-18.7,18.7H204.2&#10;&#9;&#9;c-10.3,0-18.7-8.4-18.7-18.7V78.2C185.6,67.9,193.9,59.5,204.2,59.5z" style="fill: rgb(184, 210, 111);"/>
	<path class="st0_order-confirmed-2-80" d="M399.6,422H204.2c-11.1,0-20.2-9-20.2-20.2V78.2c0-11.1,9-20.2,20.2-20.2h195.4c11.1,0,20.2,9,20.2,20.2v323.6&#10;&#9;&#9;C419.8,412.9,410.8,422,399.6,422L399.6,422z M204.2,61c-9.5,0-17.2,7.7-17.2,17.2v323.6c0,9.5,7.7,17.2,17.2,17.2c0,0,0,0,0,0&#10;&#9;&#9;h195.4c9.5,0,17.2-7.7,17.2-17.2V78.2c0-9.5-7.7-17.2-17.2-17.2H204.2z"/>
	<path class="st2_order-confirmed-2-80" d="M202.1,95.9h199.6c3,0,5.5,2.5,5.5,5.5v271.3c0,3-2.5,5.5-5.5,5.5H202.1c-3,0-5.5-2.5-5.5-5.5V101.4&#10;&#9;&#9;C196.6,98.4,199.1,95.9,202.1,95.9z"/>
	<path class="st0_order-confirmed-2-80" d="M401.8,379.7H202.1c-3.9,0-7-3.1-7-7V101.4c0-3.9,3.1-7,7-7l0,0h199.6c3.9,0,7,3.1,7,7l0,0v271.3&#10;&#9;&#9;C408.7,376.6,405.6,379.7,401.8,379.7z M202.1,97.4c-2.2,0-4,1.8-4,4v271.3c0,2.2,1.8,4,4,4h199.6c2.2,0,4-1.8,4-4V101.4&#10;&#9;&#9;c0-2.2-1.8-4-4-4L202.1,97.4z"/>
	<circle class="st0_order-confirmed-2-80" cx="271.9" cy="79.6" r="3"/>
	<path class="st0_order-confirmed-2-80" d="M335,81.1h-48.6c-0.8,0-1.5-0.7-1.5-1.5s0.7-1.5,1.5-1.5H335c0.8,0,1.5,0.7,1.5,1.5S335.8,81.1,335,81.1z"/>
	<path class="st0_order-confirmed-2-80" d="M335,83.8h-48.6c-2.3,0-4.2-1.9-4.2-4.2c0-2.3,1.9-4.2,4.2-4.2H335c2.3,0,4.2,1.9,4.2,4.2&#10;&#9;&#9;C339.2,81.9,337.3,83.8,335,83.8z"/>
	<ellipse class="st1_order-confirmed-2-80 targetColor" cx="301.9" cy="398.2" rx="12.8" ry="12.8" style="fill: rgb(184, 210, 111);"/>
	<path class="st0_order-confirmed-2-80" d="M301.9,412.5c-7.9,0-14.3-6.4-14.3-14.3c0-7.9,6.4-14.3,14.3-14.3c7.9,0,14.3,6.4,14.3,14.3c0,0,0,0,0,0&#10;&#9;&#9;C316.2,406.1,309.8,412.5,301.9,412.5z M301.9,386.9c-6.2,0-11.3,5-11.3,11.3c0,6.2,5,11.3,11.3,11.3c6.2,0,11.3-5,11.3-11.3&#10;&#9;&#9;c0,0,0,0,0,0C313.2,392,308.2,386.9,301.9,386.9z"/>
</g>
<g id="list_order-confirmed-2-80">
	<polygon class="st2_order-confirmed-2-80" points="383.1,138 383.1,341.9 224.2,341.9 224.2,162.5 251.3,138 &#9;"/>
	<path class="st0_order-confirmed-2-80" d="M383.1,343h-159c-0.6,0-1.1-0.5-1.1-1.1V162.5c0-0.3,0.1-0.6,0.4-0.8l27.2-24.5c0.2-0.2,0.5-0.3,0.7-0.3h131.8&#10;&#9;&#9;c0.6,0,1.1,0.5,1.1,1.1v203.8C384.3,342.5,383.8,343,383.1,343z M225.3,340.8h156.8V139.1H251.8L225.3,163L225.3,340.8z"/>
	<rect x="224.2" y="237.4" class="st1_order-confirmed-2-80 targetColor" width="159" height="104.5" style="fill: rgb(184, 210, 111);"/>
	<path class="st0_order-confirmed-2-80" d="M383.1,343h-159c-0.6,0-1.1-0.5-1.1-1.1V237.4c0-0.6,0.5-1.1,1-1.1c0,0,0.1,0,0.1,0h159c0.6,0,1.1,0.5,1.1,1.1&#10;&#9;&#9;v104.5C384.3,342.5,383.8,343,383.1,343z M225.3,340.8h156.8V238.5H225.3L225.3,340.8z"/>
	<polygon class="st1_order-confirmed-2-80 targetColor" points="224.2,162.5 251.3,162.5 251.3,138 &#9;" style="fill: rgb(184, 210, 111);"/>
	<path class="st0_order-confirmed-2-80" d="M251.3,163.7h-27.2c-0.6-0.1-1.1-0.6-1.1-1.2c0-0.3,0.1-0.6,0.3-0.7l27.2-24.5c0.5-0.4,1.2-0.3,1.6,0.1&#10;&#9;&#9;c0,0,0,0,0,0c0.2,0.2,0.2,0.4,0.2,0.6v24.5c0,0.6-0.4,1.1-1,1.1C251.4,163.7,251.4,163.7,251.3,163.7z M227.1,161.4h23.2v-20.8&#10;&#9;&#9;L227.1,161.4z"/>
	<path class="st3_order-confirmed-2-80" d="M302,308.9h61.8c2,0,5.6,3.6,5.6,5.6c0,0,0-2,0-2v5.9c0,2-2.6,5.6-4.5,5.6c0,0-61.9,0-61.9,0&#10;&#9;&#9;c-2,0-4.6-2.6-4.6-4.6c0,0,0-5.9,0-5.9c0-2,3.6-4.6,5.5-4.6C304,308.9,302,308.9,302,308.9z"/>
	<path class="st0_order-confirmed-2-80" d="M362.4,325.1h-56.9c-4.5,0-8.1-3.6-8.1-8.1c0,0,0,0,0,0v-1c0-4.5,3.6-8.1,8.1-8.1h0h56.9&#10;&#9;&#9;c4.5,0,8.1,3.6,8.1,8.1v1C370.5,321.4,366.9,325.1,362.4,325.1L362.4,325.1z M305.4,310c-3.3,0-5.9,2.6-5.9,5.9c0,0,0,0,0,0v1&#10;&#9;&#9;c0,3.3,2.7,5.9,5.9,5.9h0h56.9c3.3,0,5.9-2.7,5.9-5.9v-1c0-3.3-2.7-5.9-5.9-5.9H305.4z"/>
	<circle class="st2_order-confirmed-2-80" cx="264.4" cy="276.6" r="24.4"/>
	<path class="st0_order-confirmed-2-80" d="M264.4,302.1c-14.1,0-25.5-11.4-25.5-25.5c0-14.1,11.4-25.5,25.5-25.5c14.1,0,25.5,11.4,25.5,25.5l0,0&#10;&#9;&#9;C289.9,290.7,278.5,302.1,264.4,302.1C264.4,302.1,264.4,302.1,264.4,302.1z M264.4,253.3c-12.9,0-23.3,10.5-23.3,23.3&#10;&#9;&#9;c0,12.9,10.5,23.3,23.3,23.3c12.9,0,23.3-10.4,23.3-23.3C287.7,263.7,277.3,253.3,264.4,253.3C264.4,253.3,264.4,253.3,264.4,253.3&#10;&#9;&#9;z"/>
	<path class="st2_order-confirmed-2-80" d="M357.3,261.2H342c-0.6-0.1-1-0.8-0.9-1.4c0.1-0.4,0.4-0.8,0.9-0.9h15.3c0.6,0.1,1,0.7,0.9,1.3c0,0,0,0.1,0,0.1&#10;&#9;&#9;C358,260.7,357.7,261.1,357.3,261.2z"/>
	<path class="st2_order-confirmed-2-80" d="M327.9,261.2h-25.5c-0.6-0.1-1-0.8-0.9-1.4c0.1-0.4,0.4-0.8,0.9-0.9h25.5c0.6,0.1,1,0.7,0.9,1.3&#10;&#9;&#9;c0,0,0,0.1,0,0.1C328.6,260.7,328.3,261.1,327.9,261.2z"/>
	<path class="st2_order-confirmed-2-80" d="M365.4,276.5h-62.9c-0.6-0.1-1-0.8-0.9-1.4c0.1-0.4,0.4-0.8,0.9-0.9h62.9c0.6,0.1,1,0.7,0.9,1.3&#10;&#9;&#9;c0,0,0,0.1,0,0.1C366.1,276,365.8,276.3,365.4,276.5z"/>
	<path class="st2_order-confirmed-2-80" d="M347.9,291.7h-45.4c-0.6-0.1-1-0.7-0.9-1.2c0,0,0-0.1,0-0.1c0.1-0.4,0.4-0.8,0.9-0.9h45.4&#10;&#9;&#9;c0.6,0.1,1,0.7,0.9,1.3c0,0,0,0.1,0,0.1C348.6,291.3,348.3,291.6,347.9,291.7z"/>
	<path class="st4_order-confirmed-2-80" d="M251.3,229h-15.5c-0.9,0-1.6-0.7-1.6-1.6v-15.6c0-0.9,0.7-1.6,1.6-1.6h15.5c0.9,0,1.6,0.7,1.6,1.6v15.5&#10;&#9;&#9;c0,0.9-0.6,1.6-1.5,1.6C251.4,229,251.4,229,251.3,229L251.3,229z M237.5,225.7h12.2v-12.2h-12.2V225.7z"/>
	<path class="st4_order-confirmed-2-80" d="M373.6,227.1H342c-0.9-0.1-1.6-0.8-1.6-1.8c0.1-0.9,0.7-1.5,1.6-1.6h31.6c0.9,0.1,1.6,0.8,1.6,1.8&#10;&#9;&#9;C375.1,226.3,374.5,227,373.6,227.1z"/>
	<path class="st4_order-confirmed-2-80" d="M368.5,149.8h-11.6c-0.9,0-1.7-0.7-1.8-1.6c0-0.9,0.7-1.7,1.6-1.8h11.7c0.9,0,1.7,0.8,1.7,1.7&#10;&#9;&#9;C370.1,149.1,369.4,149.8,368.5,149.8z"/>
	<path class="st4_order-confirmed-2-80" d="M348.9,149.8H342c-0.9,0-1.7-0.8-1.7-1.7c0-0.9,0.8-1.7,1.7-1.7l0,0h6.9c0.9,0,1.7,0.8,1.7,1.7&#10;&#9;&#9;C350.6,149.1,349.8,149.8,348.9,149.8L348.9,149.8z"/>
</g>
<g id="cart_order-confirmed-2-80">
	<path class="st4_order-confirmed-2-80" d="M335.3,206h-50.4c-0.8,0-1.5-0.6-1.7-1.4l-7.9-40.4h-13.5c-0.9,0-1.6-0.7-1.6-1.7c0-0.9,0.7-1.6,1.6-1.6h14.9&#10;&#9;&#9;c0.8,0,1.5,0.6,1.6,1.4l1.4,7.2h63.4c0.9,0,1.7,0.7,1.7,1.7l0,0c0,0.1,0,0.3-0.1,0.4l-7.7,33.1C336.7,205.4,336.1,206,335.3,206z&#10;&#9;&#9; M286.2,202.6H334l7-29.9h-60.6L286.2,202.6z"/>
	<path class="st4_order-confirmed-2-80" d="M298.7,220.4c-4.8,0-8.7-3.9-8.7-8.7c0-4.8,3.9-8.7,8.7-8.7c4.8,0,8.7,3.9,8.7,8.7c0,0,0,0,0,0l0,0&#10;&#9;&#9;C307.4,216.5,303.5,220.4,298.7,220.4z M298.7,206.5c-3,0-5.4,2.4-5.4,5.4c0,3,2.4,5.4,5.4,5.4c3,0,5.4-2.4,5.4-5.4c0,0,0,0,0,0&#10;&#9;&#9;l0,0C304.1,208.9,301.7,206.5,298.7,206.5C298.7,206.5,298.7,206.5,298.7,206.5z"/>
	<path class="st4_order-confirmed-2-80" d="M321.7,220.4c-4.8,0-8.7-3.9-8.7-8.6s3.9-8.7,8.6-8.7c4.8,0,8.7,3.9,8.7,8.6c0,0,0,0,0,0l0,0&#10;&#9;&#9;C330.3,216.5,326.4,220.4,321.7,220.4z M321.7,206.5c-3,0-5.4,2.4-5.4,5.4c0,3,2.4,5.4,5.4,5.4c3,0,5.4-2.4,5.4-5.4c0,0,0,0,0,0&#10;&#9;&#9;l0,0C327,208.9,324.6,206.5,321.7,206.5C321.7,206.5,321.7,206.5,321.7,206.5z"/>
</g>
<g id="check-mark_order-confirmed-2-80">
	<path class="st5_order-confirmed-2-80" d="M259.4,289.5l-15-16.6c-1.1-1.3-1.1-3.2,0.2-4.4c0,0,0,0,0,0l4.2-3.8c1.2-1.1,3.2-1.1,4.3,0.2c0,0,0,0,0,0l0,0&#10;&#9;&#9;l9,10l24.9-23.2c1.2-1.2,3.2-1.1,4.3,0.1c0,0,0,0,0,0l3.9,4.1c1.2,1.2,1.1,3.2-0.1,4.4c0,0,0,0,0,0l-31.5,29.3&#10;&#9;&#9;C262.5,290.9,260.6,290.9,259.4,289.5C259.4,289.6,259.4,289.6,259.4,289.5C259.5,289.6,259.4,289.6,259.4,289.5z"/>
	<path class="st0_order-confirmed-2-80" d="M261.8,291.7h-0.2c-1.1,0-2.2-0.5-2.9-1.4l0,0l-15-16.6c-1.6-1.7-1.4-4.4,0.3-6c0,0,0,0,0,0l4.1-3.8&#10;&#9;&#9;c1.7-1.6,4.4-1.4,6,0.3l8.3,9.1l24.1-22.4c1.7-1.6,4.4-1.5,6,0.2l0,0l3.9,4.2c1.6,1.7,1.5,4.4-0.2,6c0,0,0,0,0,0l-31.5,29.3&#10;&#9;&#9;C263.9,291.3,262.9,291.7,261.8,291.7z M260.3,288.9c0.3,0.4,0.8,0.6,1.4,0.6c0.5,0,1-0.2,1.4-0.5l31.5-29.3c0.8-0.8,0.8-2,0.1-2.9&#10;&#9;&#9;l0,0l-3.9-4.1c-0.7-0.8-2-0.9-2.8-0.1c0,0,0,0,0,0l0,0L263,275.8c-0.2,0.2-0.5,0.3-0.8,0.3c-0.3,0-0.6-0.1-0.8-0.4l-9.1-10&#10;&#9;&#9;c-0.7-0.8-2-0.9-2.8-0.2c0,0,0,0,0,0l0,0l-4.2,3.8c-0.8,0.8-0.9,2-0.2,2.9l0,0L260.3,288.9L260.3,288.9z"/>
</g>
<g id="character_order-confirmed-2-80">
	<g id="character-1_order-confirmed-2-80">
		<path class="st6_order-confirmed-2-80" d="M220.4,257.8c0.4-0.1,6.3-11.1,6.3-11.1s-0.2-7-0.2-10.4s2.6-4,3.4-2.3s1.2,6.6,1.3,6.6s4.1-11.1,5-11.6&#10;&#9;&#9;&#9;s11.1,4.8,11.7,8.2c0.3,1.7-1.5,7.2-3.4,12.5c-0.6,1.5-5.7,4.7-5.7,4.7s-5.9,7.9-7.6,9.7L220.4,257.8z"/>
		<path class="st0_order-confirmed-2-80" d="M231.2,265.5c-0.3,0-0.5-0.1-0.8-0.2l-10.8-6.2c-0.7-0.4-1-1.4-0.5-2.1c0.1-0.1,0.2-0.2,0.3-0.3&#10;&#9;&#9;&#9;c0.6-0.8,3.4-5.8,5.8-10.4c0-1.6-0.2-7.1-0.2-10s1.6-4.3,3-4.6c1.4-0.3,2.7,0.4,3.3,1.7c0.2,0.5,0.4,1.1,0.5,1.7&#10;&#9;&#9;&#9;c2.4-6.2,3-7,3.8-7.4c0.5-0.2,1.2-0.6,4.9,1.3c1.4,0.7,8.4,4.4,8.9,8.1c0.4,2.4-2,9.3-3.5,13.2c-0.6,1.6-4,3.9-6.1,5.3&#10;&#9;&#9;&#9;c-1,1.3-5.9,7.9-7.5,9.6C232,265.4,231.6,265.6,231.2,265.5z M222.5,257.3l8.3,4.8c2.2-2.6,6.6-8.6,6.7-8.7&#10;&#9;&#9;&#9;c0.1-0.1,0.3-0.3,0.4-0.4c2.4-1.5,4.8-3.3,5.1-3.9c2.7-7.1,3.5-10.9,3.4-11.7c-0.1-0.6-1.1-2.1-4.5-4.2c-1.6-1-3.2-1.9-5-2.6&#10;&#9;&#9;&#9;c-0.9,1.7-2.6,6.3-3.4,8.2c-1.2,3-1.3,3.4-2.4,3.3c-1.3-0.1-1.4-1-1.7-2.7c-0.2-1.6-0.5-3.2-1-4.8c-0.4,0.5-0.6,1.1-0.5,1.7&#10;&#9;&#9;&#9;c0,3.3,0.2,10.2,0.2,10.3c0,0.3-0.1,0.5-0.2,0.8C225.1,252.8,223.5,255.7,222.5,257.3z M220,256.4L220,256.4z"/>
		<path class="st6_order-confirmed-2-80" d="M123.6,235h21.8l0,0v18.2c0,2-1.6,3.5-3.6,3.5h-14.7c-2,0-3.6-1.6-3.6-3.6l0,0V235L123.6,235z"/>
		<path class="st0_order-confirmed-2-80" d="M141.8,258.3h-14.7c-2.8,0-5-2.3-5.1-5.1v-19.8h24.8v19.8C146.9,256,144.6,258.3,141.8,258.3z M125.1,236.5&#10;&#9;&#9;&#9;v16.8c0,1.1,0.9,2.1,2,2.1h0h14.7c1.1,0,2-0.9,2-2.1v-16.8H125.1z"/>
		<rect x="112.6" y="324.9" class="st6_order-confirmed-2-80" width="17.2" height="117.7"/>
		<path class="st0_order-confirmed-2-80" d="M129.8,444.1h-17.3c-0.8,0-1.5-0.7-1.5-1.5V324.9c0-0.8,0.7-1.5,1.5-1.5h17.3c0.8,0,1.5,0.7,1.5,1.5v117.7&#10;&#9;&#9;&#9;C131.3,443.4,130.7,444.1,129.8,444.1z M114.1,441.1h14.3V326.4h-14.3L114.1,441.1z"/>
		<rect x="149" y="324.9" class="st6_order-confirmed-2-80" width="17.2" height="117.7"/>
		<polygon class="st0_order-confirmed-2-80" points="179.5,400.3 96,400.3 108.1,324.9 167.7,324.9 &#9;&#9;"/>
		<path class="st0_order-confirmed-2-80" d="M166.2,444.1H149c-0.8,0-1.5-0.7-1.5-1.5V324.9c0-0.8,0.7-1.5,1.5-1.5h17.2c0.8,0,1.5,0.7,1.5,1.5v117.7&#10;&#9;&#9;&#9;C167.8,443.4,167.1,444.1,166.2,444.1C166.2,444.1,166.2,444.1,166.2,444.1z M150.5,441.1h14.2V326.4h-14.2V441.1z"/>
		<path class="st7_order-confirmed-2-80" d="M129.8,442.6v13.2H99.3c0,0,1.7-10.2,13.8-13.2H129.8z"/>
		<path class="st0_order-confirmed-2-80" d="M129.8,457.3H99.3c-0.8,0-1.5-0.7-1.5-1.5c0-0.1,0-0.2,0-0.3c0.1-0.5,1.9-11.2,14.9-14.4c0.1,0,0.2,0,0.4,0&#10;&#9;&#9;&#9;h16.7c0.8,0,1.5,0.7,1.5,1.5v13.2C131.3,456.7,130.6,457.3,129.8,457.3z M101.3,454.3h27v-10.2h-15&#10;&#9;&#9;&#9;C105.3,446.2,102.3,451.5,101.3,454.3z"/>
		<path class="st7_order-confirmed-2-80" d="M149,442.6v13.2h30.5c0,0-1.6-10.2-13.8-13.2H149z"/>
		<path class="st0_order-confirmed-2-80" d="M179.5,457.3H149c-0.8,0-1.5-0.7-1.5-1.5v-13.2c0-0.8,0.7-1.5,1.5-1.5h16.7c0.1,0,0.2,0,0.4,0&#10;&#9;&#9;&#9;c12.9,3.2,14.8,14,14.9,14.4c0.1,0.4-0.1,0.9-0.3,1.2C180.4,457.1,179.9,457.3,179.5,457.3z M150.5,454.3h27c-1-2.8-4-8.1-12-10.2&#10;&#9;&#9;&#9;h-15V454.3z"/>
		<path class="st1_order-confirmed-2-80 targetColor" d="M220.1,253.6c0,0-4.9,15-18.7,19.4c-6.7,2.1-18.3-6.9-24.5-12.5c-6.9-6.3-15.9-9.7-25.2-9.7&#10;&#9;&#9;&#9;c-5,0.1-11.3-0.4-18.4-0.5c-4.8-0.1-12.7,0.7-16.6,3.7c-6,4.7-9,12.8-9.6,20.2c-0.6,7.6,0.7,15.1,0.9,22.7&#10;&#9;&#9;&#9;c0.2,5.5-2.7,25.9,3.7,27.6c3.8,1,9.2,0,13,0h43.7l0.1-33.9v-8.9c0,0,16.1,23.1,40.3,9.9c19.3-10.5,24.7-27.6,26.4-30.1&#10;&#9;&#9;&#9;L220.1,253.6z" style="fill: rgb(184, 210, 111);"/>
		<path class="st0_order-confirmed-2-80" d="M116,326.5c-1.6,0-3.1-0.1-4.6-0.5c-6.2-1.7-5.5-14.4-5-23.8c0.1-2.2,0.2-4.1,0.2-5.2&#10;&#9;&#9;&#9;c-0.1-2.6-0.3-5.2-0.5-7.8c-0.6-5-0.7-10.1-0.4-15.1c0.7-8.9,4.5-16.8,10.1-21.2c5.1-4,15.5-4.1,17.5-4c3.1,0.1,6,0.2,8.8,0.3&#10;&#9;&#9;&#9;c3.5,0.1,6.8,0.2,9.6,0.2c9.7-0.1,19.1,3.5,26.3,10.1c10,9,18.6,13.5,23,12.1c12.9-4.1,17.7-18.3,17.8-18.4l0.6-1.7l18.3,9.6&#10;&#9;&#9;&#9;l-1,1.4c-0.2,0.3-0.6,1.1-1,2c-2.8,5.8-9.2,19.4-25.9,28.5c-19.3,10.5-33.8-1.1-39.5-7.1l-0.1,40.2h-45.1c-1.2,0-2.5,0.1-4,0.2&#10;&#9;&#9;&#9;S117.6,326.5,116,326.5z M132.5,251.9c-5.4,0-11.9,1-14.9,3.4c-5,3.9-8.3,11-9,19.1c-0.3,4.9-0.1,9.8,0.4,14.6&#10;&#9;&#9;&#9;c0.2,2.6,0.4,5.3,0.5,7.9c0,1.3,0,3.2-0.2,5.5c-0.3,6.4-1,19.7,2.8,20.7c2.3,0.6,5.4,0.4,8.5,0.2c1.5-0.1,2.9-0.2,4.2-0.2H167&#10;&#9;&#9;&#9;l0.1-46l2.7,3.9c0.6,0.9,15.6,21.8,38.3,9.4c15.8-8.6,22-21.6,24.6-27.1c0.2-0.4,0.3-0.7,0.5-1l-12.4-6.5&#10;&#9;&#9;&#9;c-1.8,4.2-7.3,15-19.1,18.7c-7.6,2.4-19.5-7-25.9-12.8c-6.6-6-15.3-9.3-24.2-9.3c-2.9,0-6.2-0.1-9.7-0.2c-2.8-0.1-5.6-0.2-8.7-0.3&#10;&#9;&#9;&#9;L132.5,251.9z"/>
		<path class="st6_order-confirmed-2-80" d="M151.8,242.1c0,0-52.4-12.4-52.4-33.7v-20.7c0,0,9.7-5.5,12.6-14.2c0,0,18.4,7,29.1,6.9&#10;&#9;&#9;&#9;c21-0.1,35.4-7.6,35.4-7.6v35.7C176.4,229.7,173,242.1,151.8,242.1z"/>
		<path class="st0_order-confirmed-2-80" d="M151.8,243.6h-0.4c-2.2-0.5-53.5-13-53.5-35.2v-21.6l0.8-0.4c0.1-0.1,9.2-5.4,11.9-13.4l0.5-1.5l1.5,0.6&#10;&#9;&#9;&#9;c0.2,0.1,18.2,6.9,28.5,6.9l0,0c20.3-0.1,34.6-7.4,34.7-7.4l2.2-1.1v38.1C177.9,227,175.9,243.6,151.8,243.6z M100.9,188.5v19.9&#10;&#9;&#9;&#9;c0,10.2,13.8,18.4,25.3,23.5c8.3,3.6,17,6.5,25.8,8.8c19.4-0.1,23-10.9,23-32.2v-33.3c-10.7,4.5-22.3,6.8-33.9,6.8l0,0&#10;&#9;&#9;&#9;c-9.2,0-23.6-4.9-28.1-6.5C109.9,182.3,103.1,187,100.9,188.5z"/>
		<path class="st0_order-confirmed-2-80" d="M170.3,192.7c0,2-1.6,3.6-3.6,3.6c-2,0-3.6-1.6-3.6-3.6c0-2,1.6-3.6,3.6-3.6c0,0,0,0,0,0&#10;&#9;&#9;&#9;C168.7,189.1,170.3,190.7,170.3,192.7z"/>
	</g>
	<path class="st8_order-confirmed-2-80" d="M85.6,176.5c-0.1,5.3,1.2,9.8,1.8,14.9c0.7,6.8,0.6,13.8-0.3,20.6c-1.1,8-3.8,16-9,22.1&#10;&#9;&#9;c-1.5,1.8-3.3,3.5-4,5.8c-1,3.4,0.7,7,2.8,9.9c4.5,6.5,11.3,11,19,12.8c6.8,1.4,14.2-1,20.3-3.8c3.7-1.6,7.2-3.9,10.1-6.7&#10;&#9;&#9;c2.3-2.3,3.7-4.7,7.4-4.5c2.2,0.1,4.4,0.9,6.7,0.8c3.8-0.1,7.2-2.6,9.3-5.7s3.1-6.9,3.8-10.6c1.6-8,2.3-16.2,2-24.4&#10;&#9;&#9;c-0.2-5-0.7-10.1,0.9-14.9c3.2-9.8,13.5-8.6,20.9-13c7.2-4.4,11.7-12.2,11.7-20.7c0-12.7-10.3-23.1-23.1-23.1&#10;&#9;&#9;c-6.7,0-13.5,0.4-20.2,0c-1.6-0.1-3-0.8-4.6-1c-2.5-0.3-5-0.3-7.5,0c-4.9,0.3-9.7,1.5-14.2,3.5c-7.3,3.3-13.6,9.2-16.6,16.7&#10;&#9;&#9;c-0.1,0.5-0.4,1-0.8,1.3c-0.4,0.3-0.9,0.5-1.4,0.5c-4.7,1-8.8,3.7-11.7,7.6C86.4,168.1,85.7,172.2,85.6,176.5z"/>
	<path class="st0_order-confirmed-2-80" d="M100,264.5c-1.5,0-3-0.1-4.5-0.5c-8.1-1.9-15.2-6.6-20-13.4c-3-4.1-4-7.9-3-11.2c0.8-2,2-3.9,3.5-5.4l0.8-0.9&#10;&#9;&#9;c4.5-5.3,7.5-12.6,8.7-21.3c0.9-6.7,1-13.5,0.3-20.2c-0.2-1.7-0.5-3.4-0.8-5c-0.7-3.3-1-6.7-1.1-10.1l0,0c0.1-3.4,0.6-8.4,3.8-12.8&#10;&#9;&#9;c3.1-4.2,7.5-7.1,12.6-8.2c0.3,0,0.5-0.1,0.7-0.2c0.1-0.2,0.2-0.4,0.3-0.7c2.9-7.5,9.3-13.9,17.4-17.6c4.7-2,9.6-3.3,14.7-3.6h0.2&#10;&#9;&#9;c2.5-0.3,5.1-0.3,7.6,0c0.7,0.1,1.4,0.3,2.1,0.5c0.8,0.3,1.6,0.4,2.4,0.5c4.4,0.3,8.9,0.2,13.3,0.1c2.2-0.1,4.5-0.1,6.7-0.1&#10;&#9;&#9;c13.6,0,24.6,11,24.6,24.5c0,0,0,0,0,0c0,9-4.8,17.3-12.5,22c-2.6,1.4-5.4,2.6-8.4,3.3c-5.4,1.6-10.1,3.1-12,8.9&#10;&#9;&#9;c-1.2,3.8-1,8.1-0.9,12.2c0,0.7,0.1,1.4,0.1,2.1c0.3,8.3-0.4,16.6-2,24.7c-0.8,3.8-1.8,7.7-4,11.1c-2.6,3.9-6.5,6.3-10.5,6.4&#10;&#9;&#9;c-1.3,0-2.7-0.1-4-0.4c-0.9-0.2-1.9-0.3-2.8-0.4c-2.3-0.1-3.4,1.1-5,2.8c-0.4,0.4-0.8,0.9-1.3,1.3c-3.1,2.9-6.7,5.3-10.6,7&#10;&#9;&#9;C112.4,262.1,106.2,264.5,100,264.5z M87.1,176.5c0,3.2,0.3,6.4,1,9.6c0.3,1.7,0.6,3.4,0.8,5.1c0.8,7,0.7,14-0.3,21&#10;&#9;&#9;c-1.2,9.2-4.5,17.1-9.4,22.9c-0.3,0.3-0.6,0.6-0.8,0.9c-1.3,1.2-2.2,2.7-2.9,4.3c-0.7,2.3,0.1,5.2,2.5,8.6&#10;&#9;&#9;c4.3,6.2,10.8,10.5,18.1,12.2c6.8,1.4,14.3-1.4,19.4-3.7c3.6-1.6,6.9-3.8,9.7-6.4c0.4-0.4,0.8-0.8,1.2-1.2c1.8-1.9,3.6-3.9,7.3-3.7&#10;&#9;&#9;c1.1,0.1,2.2,0.2,3.2,0.4c1.1,0.2,2.2,0.4,3.4,0.4c3-0.1,6.1-2,8.1-5.1s2.9-6.6,3.6-10.1c1.6-7.9,2.3-16,2-24.1&#10;&#9;&#9;c0-0.7,0-1.4-0.1-2.1c-0.2-4.4-0.4-9,1-13.3c2.4-7.3,8.2-9.1,13.9-10.8c2.7-0.7,5.2-1.7,7.7-3c6.8-4.1,11-11.5,11-19.4&#10;&#9;&#9;c0-11.9-9.7-21.6-21.6-21.6c-2.2,0-4.5,0-6.7,0.1c-4.5,0.1-9.1,0.2-13.6-0.1c-1-0.1-2-0.3-3-0.6c-0.6-0.2-1.2-0.3-1.8-0.4&#10;&#9;&#9;c-2.3-0.3-4.6-0.3-6.9,0h-0.2c-4.7,0.3-9.4,1.5-13.7,3.4c-7.4,3.3-13.2,9.1-15.8,15.9c-0.3,0.8-0.7,1.4-1.3,2&#10;&#9;&#9;c-0.6,0.4-1.2,0.7-1.9,0.8c-4.3,0.9-8.2,3.4-10.8,7C88.1,168.3,87.1,171.7,87.1,176.5L87.1,176.5z"/>
	<path class="st0_order-confirmed-2-80" d="M170.5,221h-0.2c-3.1-0.4-6-2-7.9-4.6c-0.5-0.7-0.4-1.6,0.3-2.1c0.7-0.5,1.6-0.4,2.1,0.3c0,0,0,0.1,0.1,0.1&#10;&#9;&#9;c1.4,1.9,3.5,3.1,5.8,3.4c0.8,0,1.5,0.8,1.4,1.6C172,220.4,171.3,221.1,170.5,221L170.5,221z"/>
	<path class="st0_order-confirmed-2-80" d="M100.3,250.3L100.3,250.3c-0.9,0-1.5-0.7-1.5-1.5c0,0,0,0,0,0c0.1-3.1,2.3-5.1,4.3-7c1-0.9,1.9-1.9,2.7-3&#10;&#9;&#9;c1.2-2.1,1.7-4.5,1.4-6.9c-0.1-1.3-0.3-2.5-0.5-3.9s-0.4-2.8-0.5-4.2c-0.5-7.5,2.8-16,5.3-21.7c0.3-0.8,1.2-1.1,2-0.8&#10;&#9;&#9;s1.1,1.2,0.8,2l0,0c-3.8,8.5-5.4,15.1-5.1,20.3c0.1,1.3,0.3,2.6,0.5,3.9s0.4,2.7,0.5,4.1c0.3,3-0.3,6.1-1.8,8.7&#10;&#9;&#9;c-0.9,1.3-2,2.5-3.2,3.5c-1.7,1.6-3.2,3.1-3.3,4.9C101.8,249.6,101.2,250.3,100.3,250.3C100.3,250.3,100.3,250.3,100.3,250.3z"/>
	<path class="st0_order-confirmed-2-80" d="M128.7,247c-0.1,0-0.3,0-0.4-0.1c-0.8-0.2-1.2-1.1-1-1.9c2.4-8.1,4-16.4,4.6-24.8c0.4-5.2,0.5-10.6-1.9-15.2&#10;&#9;&#9;c-0.4-0.7-0.1-1.6,0.6-2c0.7-0.4,1.6-0.1,2,0.7l0,0c2.7,5.2,2.6,11.4,2.2,16.8c-0.7,8.6-2.3,17.1-4.8,25.4&#10;&#9;&#9;C129.9,246.6,129.3,247,128.7,247z"/>
</g>
</svg>